<mxfile host="65bd71144e">
    <diagram id="C5RBs43oDa-KdzZeNtuy" name="Page-1">
        <mxGraphModel dx="913" dy="675" grid="0" gridSize="10" guides="1" tooltips="1" connect="1" arrows="1" fold="1" page="1" pageScale="1" pageWidth="827" pageHeight="1169" background="none" math="0" shadow="0">
            <root>
                <mxCell id="WIyWlLk6GJQsqaUBKTNV-0"/>
                <mxCell id="WIyWlLk6GJQsqaUBKTNV-1" parent="WIyWlLk6GJQsqaUBKTNV-0"/>
                <mxCell id="9OZRC_NavAZGSDA5mFGG-38" value="I2C Flow" style="swimlane;strokeWidth=1;fontSize=12;startSize=23;fontFamily=프리텐다드;html=1;fontSource=https%3A%2F%2Fcdn.jsdelivr.net%2Fgh%2FProject-Noonnu%2Fnoonfonts_2107%401.1%2FPretendard-Regular.woff;" parent="WIyWlLk6GJQsqaUBKTNV-1" vertex="1">
                    <mxGeometry x="55" y="63" width="710" height="528" as="geometry"/>
                </mxCell>
                <mxCell id="109" value="Slave&lt;br&gt;Node" style="rounded=0;whiteSpace=wrap;html=1;fontFamily=프리텐다드;fontSource=https%3A%2F%2Fcdn.jsdelivr.net%2Fgh%2FProject-Noonnu%2Fnoonfonts_2107%401.1%2FPretendard-Regular.woff;" vertex="1" parent="9OZRC_NavAZGSDA5mFGG-38">
                    <mxGeometry x="503" y="84" width="120" height="60" as="geometry"/>
                </mxCell>
                <mxCell id="108" value="Master&lt;br&gt;Station" style="rounded=0;whiteSpace=wrap;html=1;fontFamily=프리텐다드;fontSource=https%3A%2F%2Fcdn.jsdelivr.net%2Fgh%2FProject-Noonnu%2Fnoonfonts_2107%401.1%2FPretendard-Regular.woff;" vertex="1" parent="9OZRC_NavAZGSDA5mFGG-38">
                    <mxGeometry x="74" y="84" width="120" height="60" as="geometry"/>
                </mxCell>
                <mxCell id="117" style="edgeStyle=none;html=1;exitX=0.5;exitY=1;exitDx=0;exitDy=0;fontFamily=프리텐다드;fontSource=https%3A%2F%2Fcdn.jsdelivr.net%2Fgh%2FProject-Noonnu%2Fnoonfonts_2107%401.1%2FPretendard-Regular.woff;" edge="1" parent="9OZRC_NavAZGSDA5mFGG-38" source="109">
                    <mxGeometry relative="1" as="geometry">
                        <mxPoint x="562.5799999999999" y="479.66670735677087" as="targetPoint"/>
                        <mxPoint x="562.5799999999999" y="144" as="sourcePoint"/>
                    </mxGeometry>
                </mxCell>
                <mxCell id="119" value="Func call : I2C_Req();" style="text;html=1;strokeColor=none;fillColor=none;align=center;verticalAlign=middle;whiteSpace=wrap;rounded=0;fontFamily=프리텐다드;fontSource=https%3A%2F%2Fcdn.jsdelivr.net%2Fgh%2FProject-Noonnu%2Fnoonfonts_2107%401.1%2FPretendard-Regular.woff;" vertex="1" parent="9OZRC_NavAZGSDA5mFGG-38">
                    <mxGeometry x="99" y="150" width="203" height="30" as="geometry"/>
                </mxCell>
                <mxCell id="121" value="Wire.onRequest(sendToMaster);" style="text;html=1;strokeColor=none;fillColor=none;align=center;verticalAlign=middle;whiteSpace=wrap;rounded=0;fontFamily=프리텐다드;fontSource=https%3A%2F%2Fcdn.jsdelivr.net%2Fgh%2FProject-Noonnu%2Fnoonfonts_2107%401.1%2FPretendard-Regular.woff;" vertex="1" parent="9OZRC_NavAZGSDA5mFGG-38">
                    <mxGeometry x="328" y="273" width="274" height="30" as="geometry"/>
                </mxCell>
                <mxCell id="123" value="Func call : sendToMaster();" style="text;html=1;strokeColor=none;fillColor=none;align=center;verticalAlign=middle;whiteSpace=wrap;rounded=0;fontFamily=프리텐다드;fontSource=https%3A%2F%2Fcdn.jsdelivr.net%2Fgh%2FProject-Noonnu%2Fnoonfonts_2107%401.1%2FPretendard-Regular.woff;" vertex="1" parent="9OZRC_NavAZGSDA5mFGG-38">
                    <mxGeometry x="342" y="293" width="274" height="30" as="geometry"/>
                </mxCell>
                <mxCell id="124" value="Wire.write(LiDAR_flag);" style="text;html=1;strokeColor=none;fillColor=none;align=center;verticalAlign=middle;whiteSpace=wrap;rounded=0;fontFamily=프리텐다드;fontSource=https%3A%2F%2Fcdn.jsdelivr.net%2Fgh%2FProject-Noonnu%2Fnoonfonts_2107%401.1%2FPretendard-Regular.woff;" vertex="1" parent="9OZRC_NavAZGSDA5mFGG-38">
                    <mxGeometry x="289" y="328" width="139" height="30" as="geometry"/>
                </mxCell>
                <mxCell id="122" value="" style="endArrow=classic;html=1;fontFamily=프리텐다드;fontSource=https%3A%2F%2Fcdn.jsdelivr.net%2Fgh%2FProject-Noonnu%2Fnoonfonts_2107%401.1%2FPretendard-Regular.woff;" edge="1" parent="9OZRC_NavAZGSDA5mFGG-38">
                    <mxGeometry width="50" height="50" relative="1" as="geometry">
                        <mxPoint x="564" y="347" as="sourcePoint"/>
                        <mxPoint x="134" y="373" as="targetPoint"/>
                    </mxGeometry>
                </mxCell>
                <mxCell id="125" value="Wire.requestFrom(addr, bytes);&lt;span&gt;&#9;&lt;/span&gt;" style="text;html=1;strokeColor=none;fillColor=none;align=center;verticalAlign=middle;whiteSpace=wrap;rounded=0;fontFamily=프리텐다드;fontSource=https%3A%2F%2Fcdn.jsdelivr.net%2Fgh%2FProject-Noonnu%2Fnoonfonts_2107%401.1%2FPretendard-Regular.woff;" vertex="1" parent="9OZRC_NavAZGSDA5mFGG-38">
                    <mxGeometry x="170" y="200" width="317" height="30" as="geometry"/>
                </mxCell>
                <mxCell id="126" value="LiDAR_data[slaves] = Wire.read();" style="text;html=1;strokeColor=none;fillColor=none;align=left;verticalAlign=middle;whiteSpace=wrap;rounded=0;fontFamily=프리텐다드;fontSource=https%3A%2F%2Fcdn.jsdelivr.net%2Fgh%2FProject-Noonnu%2Fnoonfonts_2107%401.1%2FPretendard-Regular.woff;" vertex="1" parent="9OZRC_NavAZGSDA5mFGG-38">
                    <mxGeometry x="147" y="379" width="267" height="36" as="geometry"/>
                </mxCell>
                <mxCell id="127" value="&#10;&#10;&lt;span style=&quot;color: rgb(240, 240, 240); font-size: 12px; font-style: normal; font-weight: 400; letter-spacing: normal; text-align: left; text-indent: 0px; text-transform: none; word-spacing: 0px; background-color: rgb(42, 42, 42); display: inline; float: none;&quot;&gt;while(Wire.available())&lt;/span&gt;&#10;&#10;" style="text;html=1;strokeColor=none;fillColor=none;align=center;verticalAlign=middle;whiteSpace=wrap;rounded=0;fontFamily=프리텐다드;fontSource=https%3A%2F%2Fcdn.jsdelivr.net%2Fgh%2FProject-Noonnu%2Fnoonfonts_2107%401.1%2FPretendard-Regular.woff;" vertex="1" parent="9OZRC_NavAZGSDA5mFGG-38">
                    <mxGeometry x="132" y="286" width="153" height="30" as="geometry"/>
                </mxCell>
                <mxCell id="128" value="Func end : Return;&lt;span style=&quot;color: rgba(0, 0, 0, 0); font-size: 0px;&quot;&gt;%3CmxGraphModel%3E%3Croot%3E%3CmxCell%20id%3D%220%22%2F%3E%3CmxCell%20id%3D%221%22%20parent%3D%220%22%2F%3E%3CmxCell%20id%3D%222%22%20value%3D%22Func%20call%20%3A%20I2C_Req()%3B%22%20style%3D%22text%3Bhtml%3D1%3BstrokeColor%3Dnone%3BfillColor%3Dnone%3Balign%3Dcenter%3BverticalAlign%3Dmiddle%3BwhiteSpace%3Dwrap%3Brounded%3D0%3B%22%20vertex%3D%221%22%20parent%3D%221%22%3E%3CmxGeometry%20x%3D%22154%22%20y%3D%22213%22%20width%3D%22203%22%20height%3D%2230%22%20as%3D%22geometry%22%2F%3E%3C%2FmxCell%3E%3C%2Froot%3E%3C%2FmxGraphModel%3E&lt;/span&gt;" style="text;html=1;strokeColor=none;fillColor=none;align=center;verticalAlign=middle;whiteSpace=wrap;rounded=0;fontFamily=프리텐다드;fontSource=https%3A%2F%2Fcdn.jsdelivr.net%2Fgh%2FProject-Noonnu%2Fnoonfonts_2107%401.1%2FPretendard-Regular.woff;" vertex="1" parent="9OZRC_NavAZGSDA5mFGG-38">
                    <mxGeometry x="99" y="440" width="203" height="30" as="geometry"/>
                </mxCell>
                <mxCell id="129" value="Func end : Return;&lt;span style=&quot;color: rgba(0, 0, 0, 0); font-size: 0px;&quot;&gt;%3CmxGraphModel%3E%3Croot%3E%3CmxCell%20id%3D%220%22%2F%3E%3CmxCell%20id%3D%221%22%20parent%3D%220%22%2F%3E%3CmxCell%20id%3D%222%22%20value%3D%22Func%20call%20%3A%20I2C_Req()%3B%22%20style%3D%22text%3Bhtml%3D1%3BstrokeColor%3Dnone%3BfillColor%3Dnone%3Balign%3Dcenter%3BverticalAlign%3Dmiddle%3BwhiteSpace%3Dwrap%3Brounded%3D0%3B%22%20vertex%3D%221%22%20parent%3D%221%22%3E%3CmxGeometry%20x%3D%22154%22%20y%3D%22213%22%20width%3D%22203%22%20height%3D%2230%22%20as%3D%22geometry%22%2F%3E%3C%2FmxCell%3E%3C%2Froot%3E%3C%2FmxGraphModel%3E&lt;/span&gt;" style="text;html=1;strokeColor=none;fillColor=none;align=center;verticalAlign=middle;whiteSpace=wrap;rounded=0;fontFamily=프리텐다드;fontSource=https%3A%2F%2Fcdn.jsdelivr.net%2Fgh%2FProject-Noonnu%2Fnoonfonts_2107%401.1%2FPretendard-Regular.woff;" vertex="1" parent="9OZRC_NavAZGSDA5mFGG-38">
                    <mxGeometry x="399" y="440" width="203" height="30" as="geometry"/>
                </mxCell>
                <mxCell id="111" style="edgeStyle=none;html=1;exitX=0.5;exitY=1;exitDx=0;exitDy=0;fontFamily=프리텐다드;fontSource=https%3A%2F%2Fcdn.jsdelivr.net%2Fgh%2FProject-Noonnu%2Fnoonfonts_2107%401.1%2FPretendard-Regular.woff;" edge="1" parent="WIyWlLk6GJQsqaUBKTNV-1" source="108">
                    <mxGeometry relative="1" as="geometry">
                        <mxPoint x="189" y="542.6667073567709" as="targetPoint"/>
                    </mxGeometry>
                </mxCell>
                <mxCell id="118" value="" style="endArrow=classic;html=1;fontFamily=프리텐다드;fontSource=https%3A%2F%2Fcdn.jsdelivr.net%2Fgh%2FProject-Noonnu%2Fnoonfonts_2107%401.1%2FPretendard-Regular.woff;" edge="1" parent="WIyWlLk6GJQsqaUBKTNV-1">
                    <mxGeometry width="50" height="50" relative="1" as="geometry">
                        <mxPoint x="189" y="281" as="sourcePoint"/>
                        <mxPoint x="617" y="313" as="targetPoint"/>
                    </mxGeometry>
                </mxCell>
            </root>
        </mxGraphModel>
    </diagram>
</mxfile>